<svg width="145" height="147" viewBox="0 0 145 147" fill="none" xmlns="http://www.w3.org/2000/svg">
<ellipse cx="58.5" cy="58.5" rx="58.5" ry="58.5" fill="#A0D9F1"/>
<circle cx="108.837" cy="111.558" r="35.3721" fill="#E3F5FC"/>
<ellipse cx="102.035" cy="102.035" rx="14.9651" ry="14.9651" fill="#A0D9F1"/>
<path d="M81.6037 59.5961C80.7298 54.7433 78.2762 50.3155 74.6248 47.0018C70.9734 43.6881 66.329 41.6745 61.4144 41.2742V38.093H58.3048V41.2742C53.3902 41.6745 48.7458 43.6881 45.0944 47.0018C41.443 50.3155 38.9894 54.7433 38.1155 59.5961C38.0652 59.8887 38.0997 60.1896 38.2149 60.4632C38.3301 60.7368 38.5213 60.9716 38.7657 61.1401C39.0102 61.3085 39.2977 61.4034 39.5944 61.4136C39.8911 61.4238 40.1845 61.3488 40.44 61.1976C41.5828 60.404 42.9225 59.9413 44.3115 59.8605C45.6315 59.8932 46.9201 60.2706 48.0492 60.9552C49.1784 61.6398 50.1089 62.6078 50.7484 63.7631C50.8967 63.9811 51.096 64.1596 51.3291 64.2829C51.5621 64.4063 51.8218 64.4708 52.0855 64.4708C52.3492 64.4708 52.6089 64.4063 52.842 64.2829C53.075 64.1596 53.2744 63.9811 53.4227 63.7631C53.9442 62.8477 54.6456 62.0474 55.4846 61.4104C56.3237 60.7733 57.283 60.3128 58.3048 60.0564V74.6312C58.3048 75.6621 57.8953 76.6508 57.1663 77.3798C56.4373 78.1087 55.4487 78.5183 54.4177 78.5183C53.3868 78.5183 52.3982 78.1087 51.6692 77.3798C50.9402 76.6508 50.5307 75.6621 50.5307 74.6312V73.8538H47.4211V74.6312C47.4211 76.4869 48.1582 78.2665 49.4704 79.5786C50.7825 80.8908 52.5621 81.6279 54.4177 81.6279C56.2734 81.6279 58.053 80.8908 59.3651 79.5786C60.6773 78.2665 61.4144 76.4869 61.4144 74.6312V60.0548C62.4365 60.3116 63.396 60.7726 64.235 61.4102C65.0741 62.0478 65.7753 62.8487 66.2965 63.7646C66.4342 63.9966 66.6299 64.1888 66.8643 64.3223C67.0987 64.4558 67.3639 64.526 67.6337 64.526C67.9034 64.526 68.1686 64.4558 68.403 64.3223C68.6375 64.1888 68.8331 63.9966 68.9708 63.7646C69.6101 62.609 70.5405 61.6407 71.6697 60.9559C72.7989 60.271 74.0875 59.8934 75.4077 59.8605C76.7967 59.9413 78.1364 60.404 79.2792 61.1976C79.5347 61.3493 79.8283 61.4246 80.1252 61.4147C80.4222 61.4047 80.7101 61.3099 80.9548 61.1414C81.1995 60.9729 81.3909 60.7378 81.5061 60.4639C81.6214 60.1901 81.6542 59.8889 81.6037 59.5961ZM44.3115 56.7508C43.5208 56.7506 42.7341 56.8621 41.9746 57.082C43.0299 54.142 44.7816 51.5013 47.0799 49.3858C49.3782 47.2703 52.1546 45.7429 55.1718 44.9342C52.0881 48.9067 50.4211 53.7961 50.4359 58.825C48.6745 57.4856 46.5242 56.7574 44.3115 56.7508ZM59.8596 56.7508C57.5672 56.761 55.3452 57.5444 53.5533 58.9742C53.6108 55.5225 54.4986 48.8835 59.8596 44.7072C65.1926 48.8695 66.0928 55.5132 66.1597 58.9696C64.3688 57.5427 62.1493 56.7611 59.8596 56.7508ZM75.4077 56.7508C73.1951 56.757 71.0449 57.4846 69.2833 58.8234C69.2981 53.7945 67.6311 48.9051 64.5474 44.9327C67.5647 45.7415 70.3413 47.2691 72.6396 49.3849C74.9379 51.5007 76.6895 54.1417 77.7446 57.082C76.9851 56.8621 76.1984 56.7506 75.4077 56.7508Z" fill="black"/>
</svg>
