<svg width="53" height="54" viewBox="0 0 53 54" fill="none" xmlns="http://www.w3.org/2000/svg">
<ellipse cx="21.5" cy="21.5" rx="21.5" ry="21.5" fill="#A0D9F1"/>
<ellipse cx="40" cy="41" rx="13" ry="13" fill="white"/>
<ellipse cx="37.5" cy="37.5" rx="5.5" ry="5.5" fill="#A0D9F1"/>
<path d="M29.9911 21.9029C29.6699 20.1193 28.7682 18.492 27.4262 17.2742C26.0842 16.0563 24.3773 15.3163 22.5711 15.1691V14H21.4283V15.1691C19.622 15.3163 17.9151 16.0563 16.5732 17.2742C15.2312 18.492 14.3294 20.1193 14.0083 21.9029C13.9898 22.0104 14.0024 22.121 14.0448 22.2215C14.0871 22.3221 14.1574 22.4084 14.2472 22.4703C14.3371 22.5322 14.4428 22.5671 14.5518 22.5708C14.6608 22.5746 14.7687 22.547 14.8626 22.4914C15.2826 22.1998 15.7749 22.0297 16.2854 22C16.7706 22.012 17.2441 22.1507 17.6591 22.4023C18.0741 22.6539 18.4161 23.0097 18.6511 23.4343C18.7056 23.5144 18.7789 23.58 18.8645 23.6254C18.9502 23.6707 19.0456 23.6944 19.1425 23.6944C19.2395 23.6944 19.3349 23.6707 19.4206 23.6254C19.5062 23.58 19.5795 23.5144 19.634 23.4343C19.8256 23.0979 20.0834 22.8038 20.3918 22.5696C20.7002 22.3355 21.0527 22.1662 21.4283 22.072V27.4286C21.4283 27.8075 21.2777 28.1708 21.0098 28.4387C20.7419 28.7066 20.3786 28.8571 19.9997 28.8571C19.6208 28.8571 19.2574 28.7066 18.9895 28.4387C18.7216 28.1708 18.5711 27.8075 18.5711 27.4286V27.1429H17.4283V27.4286C17.4283 28.1106 17.6992 28.7646 18.1814 29.2468C18.6637 29.7291 19.3177 30 19.9997 30C20.6817 30 21.3357 29.7291 21.818 29.2468C22.3002 28.7646 22.5711 28.1106 22.5711 27.4286V22.0714C22.9467 22.1658 23.2994 22.3352 23.6077 22.5696C23.9161 22.8039 24.1738 23.0982 24.3654 23.4349C24.416 23.5201 24.4879 23.5908 24.5741 23.6398C24.6602 23.6889 24.7577 23.7147 24.8568 23.7147C24.956 23.7147 25.0534 23.6889 25.1396 23.6398C25.2257 23.5908 25.2976 23.5201 25.3482 23.4349C25.5832 23.0102 25.9251 22.6543 26.3401 22.4026C26.7551 22.1509 27.2287 22.0121 27.714 22C28.2244 22.0297 28.7168 22.1998 29.1368 22.4914C29.2307 22.5472 29.3386 22.5749 29.4477 22.5712C29.5569 22.5675 29.6627 22.5327 29.7526 22.4708C29.8426 22.4088 29.9129 22.3224 29.9552 22.2218C29.9976 22.1211 30.0097 22.0105 29.9911 21.9029ZM16.2854 20.8571C15.9948 20.8571 15.7057 20.898 15.4266 20.9789C15.8144 19.8983 16.4582 18.9278 17.3029 18.1503C18.1475 17.3728 19.1679 16.8115 20.2768 16.5143C19.1435 17.9742 18.5308 19.7712 18.5363 21.6194C17.8889 21.1272 17.0986 20.8596 16.2854 20.8571ZM21.9997 20.8571C21.1572 20.8609 20.3406 21.1488 19.682 21.6743C19.7031 20.4057 20.0294 17.9657 21.9997 16.4309C23.9597 17.9606 24.2905 20.4023 24.3151 21.6726C23.6569 21.1482 22.8412 20.8609 21.9997 20.8571ZM27.714 20.8571C26.9008 20.8594 26.1105 21.1268 25.4631 21.6189C25.4685 19.7706 24.8559 17.9737 23.7225 16.5137C24.8315 16.811 25.8519 17.3724 26.6966 18.15C27.5413 18.9276 28.185 19.8982 28.5728 20.9789C28.2937 20.898 28.0045 20.8571 27.714 20.8571Z" fill="black"/>
</svg>
