<svg width="21" height="24" viewBox="0 0 21 24" fill="none" xmlns="http://www.w3.org/2000/svg">
<path d="M10.5 12.25C11.8924 12.25 13.2277 11.6969 14.2123 10.7123C15.1969 9.72774 15.75 8.39239 15.75 7C15.75 5.60761 15.1969 4.27226 14.2123 3.28769C13.2277 2.30312 11.8924 1.75 10.5 1.75C9.10761 1.75 7.77226 2.30312 6.78769 3.28769C5.80312 4.27226 5.25 5.60761 5.25 7C5.25 8.39239 5.80312 9.72774 6.78769 10.7123C7.77226 11.6969 9.10761 12.25 10.5 12.25ZM10.5 14C8.64348 14 6.86301 13.2625 5.55025 11.9497C4.2375 10.637 3.5 8.85652 3.5 7C3.5 5.14348 4.2375 3.36301 5.55025 2.05025C6.86301 0.737498 8.64348 0 10.5 0C12.3565 0 14.137 0.737498 15.4497 2.05025C16.7625 3.36301 17.5 5.14348 17.5 7C17.5 8.85652 16.7625 10.637 15.4497 11.9497C14.137 13.2625 12.3565 14 10.5 14ZM19.25 22.75V20.125C19.25 19.4288 18.9734 18.7611 18.4812 18.2688C17.9889 17.7766 17.3212 17.5 16.625 17.5H4.375C3.67881 17.5 3.01113 17.7766 2.51884 18.2688C2.02656 18.7611 1.75 19.4288 1.75 20.125V22.75C1.75 22.9821 1.65781 23.2046 1.49372 23.3687C1.32962 23.5328 1.10706 23.625 0.875 23.625C0.642936 23.625 0.420376 23.5328 0.256282 23.3687C0.0921874 23.2046 0 22.9821 0 22.75V20.125C0 18.9647 0.460936 17.8519 1.28141 17.0314C2.10188 16.2109 3.21468 15.75 4.375 15.75H16.625C17.7853 15.75 18.8981 16.2109 19.7186 17.0314C20.5391 17.8519 21 18.9647 21 20.125V22.75C21 22.9821 20.9078 23.2046 20.7437 23.3687C20.5796 23.5328 20.3571 23.625 20.125 23.625C19.8929 23.625 19.6704 23.5328 19.5063 23.3687C19.3422 23.2046 19.25 22.9821 19.25 22.75Z" fill="black"/>
</svg>
