<svg width="16" height="16" viewBox="0 0 16 16" fill="none" xmlns="http://www.w3.org/2000/svg">
<g clip-path="url(#clip0_26_509)">
<path d="M5.57375 0.52637C3.9751 1.08096 2.59643 2.13358 1.64024 3.52962C0.684049 4.92567 0.20074 6.59155 0.261304 8.28258C0.321867 9.9736 0.923111 11.6006 1.97672 12.9247C3.03033 14.2488 4.48077 15.2001 6.115 15.6389C7.4399 15.9807 8.82801 15.9958 10.16 15.6826C11.3666 15.4116 12.4822 14.8318 13.3975 14.0001C14.3501 13.1081 15.0415 11.9732 15.3975 10.7176C15.7844 9.35221 15.8532 7.91629 15.5988 6.52012H8.15875V9.60637H12.4675C12.3814 10.0986 12.1969 10.5684 11.9249 10.9877C11.653 11.4069 11.2993 11.767 10.885 12.0464C10.3589 12.3944 9.76575 12.6286 9.14375 12.7339C8.51993 12.8499 7.88007 12.8499 7.25625 12.7339C6.62399 12.6031 6.02587 12.3422 5.5 11.9676C4.65519 11.3696 4.02085 10.52 3.6875 9.54012C3.34852 8.54186 3.34852 7.45963 3.6875 6.46137C3.92478 5.76164 4.31704 5.12454 4.835 4.59762C5.42774 3.98355 6.17817 3.54462 7.00395 3.32896C7.82972 3.11331 8.69895 3.12928 9.51625 3.37512C10.1547 3.57111 10.7386 3.91354 11.2213 4.37512C11.7071 3.89179 12.1921 3.4072 12.6763 2.92137C12.9263 2.66012 13.1988 2.41137 13.445 2.14387C12.7082 1.45822 11.8434 0.924691 10.9 0.57387C9.18213 -0.049893 7.30247 -0.066656 5.57375 0.52637Z" fill="white"/>
<path d="M5.57375 0.526245C7.30233 -0.067184 9.18199 -0.0508623 10.9 0.572495C11.8435 0.925699 12.708 1.46179 13.4438 2.14999C13.1938 2.41749 12.93 2.66749 12.675 2.92749C12.19 3.41166 11.7054 3.89416 11.2213 4.37499C10.7386 3.91342 10.1547 3.57098 9.51625 3.37499C8.69922 3.1283 7.83002 3.1114 7.00403 3.32617C6.17803 3.54094 5.42714 3.97907 4.83375 4.59249C4.31579 5.11941 3.92353 5.75652 3.68625 6.45624L1.095 4.44999C2.02251 2.6107 3.62844 1.20377 5.57375 0.526245Z" fill="#E33629"/>
<path d="M0.407499 6.43745C0.546775 5.74719 0.778003 5.07873 1.095 4.44995L3.68625 6.4612C3.34727 7.45946 3.34727 8.54169 3.68625 9.53995C2.82292 10.2066 1.95917 10.8766 1.095 11.55C0.301437 9.97035 0.0594147 8.17058 0.407499 6.43745Z" fill="#F8BD00"/>
<path d="M8.15875 6.5188H15.5988C15.8532 7.91496 15.7844 9.35088 15.3975 10.7163C15.0415 11.9719 14.3501 13.1067 13.3975 13.9988C12.5613 13.3463 11.7213 12.6988 10.885 12.0463C11.2996 11.7666 11.6535 11.4062 11.9254 10.9865C12.1973 10.5668 12.3817 10.0965 12.4675 9.6038H8.15875C8.1575 8.5763 8.15875 7.54755 8.15875 6.5188Z" fill="#587DBD"/>
<path d="M1.09375 11.55C1.95792 10.8834 2.82167 10.2134 3.685 9.54004C4.01901 10.5203 4.65426 11.3699 5.5 11.9675C6.02751 12.3404 6.62691 12.5992 7.26 12.7275C7.88382 12.8435 8.52368 12.8435 9.1475 12.7275C9.76949 12.6223 10.3626 12.3881 10.8888 12.04C11.725 12.6925 12.565 13.34 13.4012 13.9925C12.4861 14.8247 11.3705 15.4049 10.1637 15.6763C8.83176 15.9894 7.44365 15.9744 6.11875 15.6325C5.07088 15.3528 4.09209 14.8595 3.24375 14.1838C2.34583 13.4709 1.61244 12.5725 1.09375 11.55Z" fill="#319F43"/>
</g>
<defs>
<clipPath id="clip0_26_509">
<rect width="16" height="16" fill="white"/>
</clipPath>
</defs>
</svg>
