<svg width="26" height="20" viewBox="0 0 26 20" fill="none" xmlns="http://www.w3.org/2000/svg">
<path d="M2.33422 20C1.66882 20 1.11367 19.78 0.668778 19.34C0.223889 18.9 0.000962963 18.3505 0 17.6914V2.30857C0 1.65048 0.222926 1.10143 0.668778 0.661428C1.11463 0.221428 1.6693 0.000952381 2.33278 0H23.6672C24.3317 0 24.8863 0.220476 25.3312 0.661428C25.7761 1.10238 25.999 1.65143 26 2.30857V17.6929C26 18.35 25.7771 18.899 25.3312 19.34C24.8854 19.781 24.3307 20.0009 23.6672 20H2.33422ZM13 10.1657L1.44444 2.69286V17.6929C1.44444 17.949 1.52774 18.1595 1.69433 18.3243C1.86093 18.489 2.07422 18.5714 2.33422 18.5714H23.6672C23.9263 18.5714 24.1391 18.489 24.3057 18.3243C24.4723 18.1595 24.5556 17.9486 24.5556 17.6914V2.69143L13 10.1657ZM13 8.57143L24.1107 1.42857H1.88933L13 8.57143ZM1.44444 2.69286V1.42857V17.6929C1.44444 17.949 1.52774 18.1595 1.69433 18.3243C1.86093 18.489 2.07422 18.5714 2.33422 18.5714H1.44444V2.69286Z" fill="black"/>
</svg>
