<svg width="20" height="20" viewBox="0 0 20 20" fill="none" xmlns="http://www.w3.org/2000/svg">
<path d="M9.15903 16.867C9.20755 16.9113 9.26432 16.9455 9.32608 16.9679C9.38785 16.9902 9.4534 17.0001 9.51901 16.9971C9.58461 16.9941 9.64898 16.9782 9.70844 16.9503C9.76789 16.9224 9.82127 16.8831 9.86553 16.8345C9.90978 16.786 9.94405 16.7292 9.96637 16.6675C9.98868 16.6057 9.99862 16.5402 9.9956 16.4745C9.99258 16.4089 9.97667 16.3446 9.94878 16.2851C9.92088 16.2257 9.88155 16.1723 9.83303 16.128L3.66503 10.498H17.496C17.6286 10.498 17.7558 10.4453 17.8496 10.3516C17.9434 10.2578 17.996 10.1306 17.996 9.99803C17.996 9.86542 17.9434 9.73824 17.8496 9.64447C17.7558 9.55071 17.6286 9.49803 17.496 9.49803H3.66803L9.83303 3.86903C9.92592 3.77842 9.97994 3.65525 9.98369 3.52554C9.98743 3.39583 9.9406 3.26974 9.8531 3.17393C9.76559 3.07811 9.64426 3.02007 9.51474 3.01206C9.38522 3.00406 9.25767 3.04672 9.15903 3.13103L2.24303 9.44503C2.15649 9.52413 2.0897 9.62241 2.04802 9.732C2.00634 9.84158 1.99093 9.95941 2.00303 10.076C2.0218 10.2591 2.10722 10.4289 2.24303 10.553L9.15903 16.867Z" fill="black"/>
</svg>
