<svg width="18" height="18" viewBox="0 0 18 18" fill="none" xmlns="http://www.w3.org/2000/svg">
<path d="M11.7 18C11.9387 18 12.1676 17.9052 12.3364 17.7364C12.5052 17.5676 12.6 17.3387 12.6 17.1C12.6 16.8613 12.5052 16.6324 12.3364 16.4636C12.1676 16.2948 11.9387 16.2 11.7 16.2H4.2C3.56348 16.2 2.95303 15.9471 2.50294 15.4971C2.05286 15.047 1.8 14.4365 1.8 13.8V4.2C1.8 3.56348 2.05286 2.95303 2.50294 2.50294C2.95303 2.05286 3.56348 1.8 4.2 1.8H11.7C11.9387 1.8 12.1676 1.70518 12.3364 1.5364C12.5052 1.36761 12.6 1.13869 12.6 0.9C12.6 0.661305 12.5052 0.432387 12.3364 0.263604C12.1676 0.0948211 11.9387 0 11.7 0H4.2C3.08609 0 2.0178 0.442499 1.23015 1.23015C0.442499 2.0178 0 3.08609 0 4.2V13.8C0 14.9139 0.442499 15.9822 1.23015 16.7698C2.0178 17.5575 3.08609 18 4.2 18H11.7ZM12.8892 4.4388C12.976 4.35857 13.0778 4.29623 13.1887 4.25534C13.2996 4.21446 13.4175 4.19582 13.5356 4.2005C13.6538 4.20518 13.7698 4.23309 13.8771 4.28262C13.9845 4.33216 14.081 4.40235 14.1612 4.4892L17.7612 8.3892C17.9149 8.55549 18.0002 8.77359 18.0002 9C18.0002 9.22641 17.9149 9.44451 17.7612 9.6108L14.1612 13.5108C13.999 13.686 13.7739 13.7896 13.5354 13.7988C13.2968 13.8081 13.0644 13.7222 12.8892 13.56C12.714 13.3978 12.6104 13.1727 12.6012 12.9342C12.5919 12.6956 12.6778 12.4632 12.84 12.288L15.0456 9.8988H5.7C5.46131 9.8988 5.23239 9.80398 5.0636 9.6352C4.89482 9.46641 4.8 9.2375 4.8 8.9988C4.8 8.76011 4.89482 8.53119 5.0636 8.3624C5.23239 8.19362 5.46131 8.0988 5.7 8.0988H15.0444L12.8388 5.7096C12.7586 5.62278 12.6962 5.521 12.6553 5.41009C12.6145 5.29917 12.5958 5.18128 12.6005 5.06316C12.6052 4.94504 12.6331 4.829 12.6826 4.72166C12.7322 4.61433 12.8024 4.519 12.8892 4.4388Z" fill="#2385AF"/>
</svg>
