<svg width="35" height="35" viewBox="0 0 35 35" fill="none" xmlns="http://www.w3.org/2000/svg">
<path d="M21.875 29.0544L13.125 25.9919L7.35296 28.2232C6.97962 28.3622 6.63303 28.3219 6.31317 28.1021C5.9933 27.8824 5.83337 27.5732 5.83337 27.1746V9.33922C5.83337 9.07866 5.89657 8.84096 6.02296 8.6261C6.14935 8.41123 6.3331 8.262 6.57421 8.17839L13.125 5.94568L21.875 9.00818L27.6471 6.77693C28.0205 6.6379 28.3671 6.66415 28.6869 6.85568C29.0068 7.04721 29.1667 7.33304 29.1667 7.71318V25.7732C29.1667 26.0522 29.0894 26.2943 28.9348 26.4994C28.7812 26.7055 28.5741 26.8504 28.3136 26.934L21.875 29.0544ZM21.1459 27.2753V10.2128L13.8542 7.66797V24.7305L21.1459 27.2753ZM22.6042 27.2753L27.7084 25.5938V8.31255L22.6042 10.2142V27.2753ZM7.29171 26.6876L12.3959 24.7305V7.66797L7.29171 9.4063V26.6876Z" fill="black"/>
</svg>
