<svg width="19" height="19" viewBox="0 0 19 19" fill="none" xmlns="http://www.w3.org/2000/svg">
<path d="M18.1159 10.9748C18.0237 10.8824 17.9081 10.8169 17.7815 10.7852C17.6548 10.7536 17.522 10.757 17.3972 10.7951C16.0266 11.2094 14.5694 11.2442 13.1807 10.8956C11.792 10.5471 10.5239 9.8283 9.51152 8.8159C8.49911 7.80349 7.78034 6.53538 7.43179 5.14669C7.08325 3.758 7.11799 2.30077 7.53231 0.930264C7.57076 0.805383 7.57444 0.672382 7.54296 0.545565C7.51147 0.418748 7.44601 0.302913 7.35362 0.210517C7.26122 0.118121 7.14539 0.0526613 7.01857 0.0211767C6.89175 -0.0103079 6.75875 -0.0066258 6.63387 0.0318271C4.73909 0.612258 3.07564 1.77551 1.88024 3.35605C0.834827 4.744 0.197153 6.39597 0.0388575 8.12636C-0.119438 9.85675 0.207916 11.597 0.984143 13.1516C1.76037 14.7062 2.95472 16.0136 4.433 16.9268C5.91128 17.84 7.61493 18.323 9.35254 18.3213C11.3797 18.3275 13.3529 17.6685 14.9696 16.4454C16.5501 15.25 17.7134 13.5865 18.2938 11.6917C18.3318 11.5673 18.3353 11.4349 18.304 11.3087C18.2727 11.1824 18.2077 11.067 18.1159 10.9748ZM14.1053 15.2972C12.5829 16.4438 10.6976 17.0019 8.79636 16.8688C6.89514 16.7357 5.10599 15.9203 3.75828 14.5727C2.41056 13.2251 1.595 11.436 1.46172 9.53477C1.32844 7.63356 1.88642 5.74819 3.03293 4.22573C3.7799 3.2393 4.74559 2.43968 5.85403 1.8898C5.79088 2.33293 5.75906 2.77996 5.75879 3.22757C5.76141 5.70488 6.74668 8.07998 8.4984 9.83171C10.2501 11.5834 12.6252 12.5687 15.1025 12.5713C15.5511 12.5712 15.999 12.5394 16.443 12.4761C15.8926 13.5847 15.0924 14.5504 14.1053 15.2972Z" fill="black"/>
</svg>
