<svg width="52" height="60" viewBox="0 0 52 60" fill="none" xmlns="http://www.w3.org/2000/svg">
<path fill-rule="evenodd" clip-rule="evenodd" d="M26 34.8462C28.1415 34.8462 30.1952 33.9551 31.7098 32.3687C33.2244 30.7824 34.0759 28.6307 34.0769 26.3868C34.0769 24.142 33.226 21.9893 31.7113 20.402C30.1965 18.8148 28.1422 17.9231 26 17.9231C23.8579 17.9231 21.8035 18.8148 20.2888 20.402C18.7741 21.9893 17.9231 24.142 17.9231 26.3868C17.9242 28.6307 18.7756 30.7824 20.2902 32.3687C21.8048 33.9551 23.8586 34.8462 26 34.8462Z" stroke="black" stroke-linecap="square"/>
<path fill-rule="evenodd" clip-rule="evenodd" d="M51 26.0543C51 46.9344 30.1667 59.4615 26 59.4615C21.8333 59.4615 1 46.9344 1 26.0543C1.00442 19.408 3.64029 13.0354 8.32822 8.33723C13.0162 3.63911 19.3725 0.999999 26 1C39.8042 1 51 12.2193 51 26.0543Z" stroke="black" stroke-linecap="square"/>
</svg>
