<svg width="22" height="22" viewBox="0 0 22 22" fill="none" xmlns="http://www.w3.org/2000/svg">
<path d="M11.5 2.875V0.71875C11.5 0.528126 11.4243 0.345309 11.2895 0.210517C11.1547 0.0757252 10.9719 0 10.7812 0C10.5906 0 10.4078 0.0757252 10.273 0.210517C10.1382 0.345309 10.0625 0.528126 10.0625 0.71875V2.875C10.0625 3.06562 10.1382 3.24844 10.273 3.38323C10.4078 3.51802 10.5906 3.59375 10.7812 3.59375C10.9719 3.59375 11.1547 3.51802 11.2895 3.38323C11.4243 3.24844 11.5 3.06562 11.5 2.875ZM5.03125 10.7812C5.03125 11.9185 5.36848 13.0302 6.0003 13.9758C6.63212 14.9214 7.53014 15.6584 8.58082 16.0936C9.6315 16.5288 10.7876 16.6426 11.903 16.4208C13.0184 16.1989 14.043 15.6513 14.8471 14.8471C15.6513 14.043 16.1989 13.0184 16.4208 11.903C16.6426 10.7876 16.5288 9.6315 16.0936 8.58082C15.6584 7.53014 14.9214 6.63212 13.9758 6.0003C13.0302 5.36848 11.9185 5.03125 10.7812 5.03125C9.25677 5.03291 7.7952 5.63925 6.71722 6.71722C5.63925 7.7952 5.03292 9.25677 5.03125 10.7812ZM6.46875 10.7812C6.46875 9.92832 6.72167 9.09454 7.19554 8.38535C7.6694 7.67617 8.34292 7.12342 9.13093 6.79702C9.91893 6.47062 10.786 6.38521 11.6226 6.55161C12.4591 6.71801 13.2275 7.12874 13.8306 7.73185C14.4338 8.33497 14.8445 9.10338 15.0109 9.93992C15.1773 10.7765 15.0919 11.6436 14.7655 12.4316C14.4391 13.2196 13.8863 13.8931 13.1771 14.367C12.468 14.8408 11.6342 15.0938 10.7812 15.0938C9.63787 15.0926 8.54166 14.6378 7.73316 13.8293C6.92467 13.0208 6.46994 11.9246 6.46875 10.7812ZM17.0398 5.53977C16.9049 5.67463 16.722 5.7504 16.5312 5.7504C16.3405 5.7504 16.1576 5.67463 16.0227 5.53977C15.8879 5.4049 15.8121 5.22198 15.8121 5.03125C15.8121 4.84052 15.8879 4.6576 16.0227 4.52273L17.4602 3.08523C17.5951 2.95037 17.778 2.8746 17.9688 2.8746C18.1595 2.8746 18.3424 2.95037 18.4773 3.08523C18.6121 3.2201 18.6879 3.40302 18.6879 3.59375C18.6879 3.78448 18.6121 3.9674 18.4773 4.10227L17.0398 5.53977ZM17.0398 16.0227L18.4773 17.4602C18.6121 17.5951 18.6879 17.778 18.6879 17.9688C18.6879 18.1595 18.6121 18.3424 18.4773 18.4773C18.3424 18.6121 18.1595 18.6879 17.9688 18.6879C17.778 18.6879 17.5951 18.6121 17.4602 18.4773L16.0227 17.0398C15.956 16.973 15.903 16.8937 15.8668 16.8065C15.8307 16.7192 15.8121 16.6257 15.8121 16.5312C15.8121 16.4368 15.8307 16.3433 15.8668 16.256C15.903 16.1688 15.956 16.0895 16.0227 16.0227C16.0895 15.956 16.1688 15.903 16.256 15.8668C16.3433 15.8307 16.4368 15.8121 16.5312 15.8121C16.6257 15.8121 16.7192 15.8307 16.8065 15.8668C16.8937 15.903 16.973 15.956 17.0398 16.0227ZM5.03125 5.75C4.93683 5.75007 4.84333 5.73155 4.75608 5.69547C4.66882 5.6594 4.58953 5.60649 4.52273 5.53977L3.08523 4.10227C2.95037 3.9674 2.8746 3.78448 2.8746 3.59375C2.8746 3.40302 2.95037 3.2201 3.08523 3.08523C3.2201 2.95037 3.40302 2.8746 3.59375 2.8746C3.78448 2.8746 3.9674 2.95037 4.10227 3.08523L5.53977 4.52273C5.6404 4.62326 5.70894 4.75138 5.73672 4.89087C5.7645 5.03037 5.75027 5.17498 5.69582 5.30638C5.64137 5.43778 5.54916 5.55008 5.43086 5.62905C5.31256 5.70802 5.17349 5.75011 5.03125 5.75ZM4.52273 16.0227C4.6576 15.8879 4.84052 15.8121 5.03125 15.8121C5.22198 15.8121 5.4049 15.8879 5.53977 16.0227C5.67463 16.1576 5.7504 16.3405 5.7504 16.5312C5.7504 16.722 5.67463 16.9049 5.53977 17.0398L4.10227 18.4773C4.03549 18.544 3.95621 18.597 3.86896 18.6332C3.78171 18.6693 3.68819 18.6879 3.59375 18.6879C3.49931 18.6879 3.40579 18.6693 3.31854 18.6332C3.23129 18.597 3.15201 18.544 3.08523 18.4773C3.01845 18.4105 2.96548 18.3312 2.92934 18.244C2.8932 18.1567 2.8746 18.0632 2.8746 17.9688C2.8746 17.8743 2.8932 17.7808 2.92934 17.6935C2.96548 17.6063 3.01845 17.527 3.08523 17.4602L4.52273 16.0227ZM17.9688 10.7812C17.9688 10.5906 18.0445 10.4078 18.1793 10.273C18.3141 10.1382 18.4969 10.0625 18.6875 10.0625H20.8438C21.0344 10.0625 21.2172 10.1382 21.352 10.273C21.4868 10.4078 21.5625 10.5906 21.5625 10.7812C21.5625 10.9719 21.4868 11.1547 21.352 11.2895C21.2172 11.4243 21.0344 11.5 20.8438 11.5H18.6875C18.4969 11.5 18.3141 11.4243 18.1793 11.2895C18.0445 11.1547 17.9688 10.9719 17.9688 10.7812ZM10.7812 17.9688C10.9719 17.9688 11.1547 18.0445 11.2895 18.1793C11.4243 18.3141 11.5 18.4969 11.5 18.6875V20.8438C11.5 21.0344 11.4243 21.2172 11.2895 21.352C11.1547 21.4868 10.9719 21.5625 10.7812 21.5625C10.5906 21.5625 10.4078 21.4868 10.273 21.352C10.1382 21.2172 10.0625 21.0344 10.0625 20.8438V18.6875C10.0625 18.4969 10.1382 18.3141 10.273 18.1793C10.4078 18.0445 10.5906 17.9688 10.7812 17.9688ZM0.71875 10.0625H2.875C3.06562 10.0625 3.24844 10.1382 3.38323 10.273C3.51803 10.4078 3.59375 10.5906 3.59375 10.7812C3.59375 10.9719 3.51803 11.1547 3.38323 11.2895C3.24844 11.4243 3.06562 11.5 2.875 11.5H0.71875C0.528126 11.5 0.345308 11.4243 0.210516 11.2895C0.0757236 11.1547 0 10.9719 0 10.7812C0 10.5906 0.0757236 10.4078 0.210516 10.273C0.345308 10.1382 0.528126 10.0625 0.71875 10.0625Z" fill="black"/>
</svg>
