<svg width="35" height="50" viewBox="0 0 35 50" fill="none" xmlns="http://www.w3.org/2000/svg">
<path d="M33.2871 22.2033L18.3203 46.305L3.35351 22.2033L33.2871 22.2033Z" fill="#A0D9F1" stroke="#777777"/>
<path d="M34.5 16.4835C34.5 24.6668 27.2949 31.3681 18.3203 31.3681C9.3457 31.3681 2.14062 24.6668 2.14062 16.4835C2.14062 8.30023 9.3457 1.59888 18.3203 1.59888C27.2949 1.59888 34.5 8.30023 34.5 16.4835Z" fill="#A0D9F1" stroke="#777777"/>
<rect width="2.49522" height="4.73628" transform="matrix(0.859238 0.511576 -0.507913 0.861408 29.4056 23)" fill="#A0D9F1"/>
<rect x="9.84375" y="27.4725" width="16.9531" height="4.3956" fill="#A0D9F1"/>
<rect width="1.49652" height="4.9518" transform="matrix(0.86003 -0.510244 0.506676 0.862137 4.79987 23.7635)" fill="#A0D9F1"/>
<rect width="6.1487" height="2.34746" transform="matrix(0.558002 -0.82984 0.827214 0.561887 23.8472 32.0145)" fill="#A0D9F1"/>
<rect width="10.7833" height="2.69945" transform="matrix(0.543171 0.839622 -0.83714 0.546988 9.22961 26)" fill="#A0D9F1"/>
<g clip-path="url(#clip0_3_88)">
<path d="M25.0555 19.4203C24.792 17.9573 24.0523 16.6224 22.9515 15.6234C21.8506 14.6243 20.4504 14.0172 18.9687 13.8966V12.9375H18.0312V13.8966C16.5496 14.0172 15.1494 14.6243 14.0485 15.6234C12.9477 16.6224 12.208 17.9573 11.9445 19.4203C11.9294 19.5085 11.9398 19.5992 11.9745 19.6817C12.0092 19.7642 12.0669 19.835 12.1406 19.8858C12.2143 19.9366 12.3009 19.9652 12.3904 19.9682C12.4798 19.9713 12.5683 19.9487 12.6453 19.9031C12.9898 19.6639 13.3937 19.5244 13.8125 19.5C14.2105 19.5099 14.599 19.6237 14.9394 19.83C15.2798 20.0364 15.5603 20.3283 15.7531 20.6766C15.7978 20.7423 15.8579 20.7961 15.9282 20.8333C15.9985 20.8705 16.0767 20.8899 16.1562 20.8899C16.2357 20.8899 16.314 20.8705 16.3843 20.8333C16.4546 20.7961 16.5147 20.7423 16.5594 20.6766C16.7166 20.4006 16.9281 20.1593 17.181 19.9673C17.434 19.7752 17.7232 19.6364 18.0312 19.5591V23.9531C18.0312 24.2639 17.9078 24.562 17.688 24.7818C17.4682 25.0015 17.1702 25.125 16.8594 25.125C16.5486 25.125 16.2505 25.0015 16.0307 24.7818C15.811 24.562 15.6875 24.2639 15.6875 23.9531V23.7188H14.75V23.9531C14.75 24.5126 14.9722 25.0491 15.3678 25.4447C15.7634 25.8403 16.2999 26.0625 16.8594 26.0625C17.4188 26.0625 17.9553 25.8403 18.3509 25.4447C18.7465 25.0491 18.9687 24.5126 18.9687 23.9531V19.5586C19.2769 19.636 19.5661 19.775 19.8191 19.9672C20.0721 20.1594 20.2835 20.4009 20.4406 20.677C20.4821 20.747 20.5411 20.8049 20.6118 20.8452C20.6825 20.8854 20.7624 20.9066 20.8437 20.9066C20.9251 20.9066 21.005 20.8854 21.0757 20.8452C21.1464 20.8049 21.2054 20.747 21.2469 20.677C21.4396 20.3286 21.7201 20.0367 22.0605 19.8302C22.401 19.6238 22.7895 19.5099 23.1875 19.5C23.6063 19.5244 24.0102 19.6639 24.3547 19.9031C24.4317 19.9489 24.5202 19.9716 24.6097 19.9686C24.6993 19.9656 24.7861 19.937 24.8598 19.8862C24.9336 19.8354 24.9913 19.7645 25.0261 19.6819C25.0608 19.5994 25.0707 19.5086 25.0555 19.4203ZM13.8125 18.5625C13.5741 18.5624 13.3369 18.5961 13.108 18.6623C13.4261 17.776 13.9542 16.9799 14.6471 16.3421C15.34 15.7043 16.1771 15.2438 17.0867 15C16.157 16.1976 15.6545 17.6717 15.6589 19.1878C15.1279 18.784 14.4796 18.5645 13.8125 18.5625ZM18.5 18.5625C17.8089 18.5656 17.139 18.8018 16.5987 19.2328C16.6161 18.1922 16.8837 16.1906 18.5 14.9316C20.1078 16.1864 20.3792 18.1894 20.3994 19.2314C19.8594 18.8013 19.1903 18.5656 18.5 18.5625ZM23.1875 18.5625C22.5204 18.5644 21.8722 18.7837 21.3411 19.1873C21.3455 17.6712 20.843 16.1972 19.9133 14.9995C20.823 15.2434 21.66 15.7039 22.3529 16.3418C23.0458 16.9797 23.5739 17.7759 23.892 18.6623C23.6631 18.5961 23.4259 18.5624 23.1875 18.5625Z" fill="black"/>
</g>
<defs>
<clipPath id="clip0_3_88">
<rect width="15" height="15" fill="white" transform="translate(11 12)"/>
</clipPath>
</defs>
</svg>
