<svg width="35" height="50" viewBox="0 0 35 50" fill="none" xmlns="http://www.w3.org/2000/svg">
<path d="M33.2871 22.2033L18.3203 46.305L3.35351 22.2033L33.2871 22.2033Z" fill="#F3EC50" stroke="#777777"/>
<path d="M34.5 16.4835C34.5 24.6668 27.2949 31.3681 18.3203 31.3681C9.3457 31.3681 2.14062 24.6668 2.14062 16.4835C2.14062 8.30023 9.3457 1.59888 18.3203 1.59888C27.2949 1.59888 34.5 8.30023 34.5 16.4835Z" fill="#F3EC50" stroke="#777777"/>
<rect width="2.49522" height="4.73628" transform="matrix(0.859238 0.511576 -0.507913 0.861408 29.4056 23)" fill="#F3EC50"/>
<rect x="9.84375" y="27.4725" width="16.9531" height="4.3956" fill="#F3EC50"/>
<rect width="1.49652" height="4.9518" transform="matrix(0.86003 -0.510244 0.506676 0.862137 4.79987 23.7635)" fill="#F3EC50"/>
<rect width="6.1487" height="2.34746" transform="matrix(0.558002 -0.82984 0.827214 0.561887 23.8472 32.0145)" fill="#F3EC50"/>
<rect width="10.7833" height="2.69945" transform="matrix(0.543171 0.839622 -0.83714 0.546988 9.22961 26)" fill="#F3EC50"/>
<path d="M24.5305 24.4219C23.6381 22.8791 22.2629 21.7729 20.658 21.2484C21.4519 20.7759 22.0686 20.0558 22.4136 19.1987C22.7586 18.3417 22.8127 17.3951 22.5676 16.5043C22.3226 15.6135 21.7919 14.8279 21.057 14.2679C20.3222 13.7079 19.4239 13.4047 18.5 13.4047C17.5762 13.4047 16.6778 13.7079 15.943 14.2679C15.2082 14.8279 14.6775 15.6135 14.4324 16.5043C14.1873 17.3951 14.2414 18.3417 14.5864 19.1987C14.9314 20.0558 15.5482 20.7759 16.342 21.2484C14.7371 21.7723 13.3619 22.8785 12.4696 24.4219C12.4368 24.4752 12.4151 24.5346 12.4057 24.5965C12.3963 24.6584 12.3994 24.7215 12.4148 24.7822C12.4302 24.8429 12.4576 24.8999 12.4953 24.9498C12.5331 24.9997 12.5805 25.0415 12.6347 25.0728C12.6889 25.1042 12.7488 25.1243 12.8109 25.1321C12.873 25.1398 12.9361 25.1351 12.9963 25.1181C13.0566 25.1011 13.1128 25.0723 13.1617 25.0332C13.2106 24.9941 13.2512 24.9456 13.2811 24.8906C14.385 22.9828 16.3362 21.8438 18.5 21.8438C20.6639 21.8438 22.6151 22.9828 23.719 24.8906C23.7488 24.9456 23.7894 24.9941 23.8383 25.0332C23.8872 25.0723 23.9435 25.1011 24.0037 25.1181C24.064 25.1351 24.127 25.1398 24.1891 25.1321C24.2512 25.1243 24.3112 25.1042 24.3654 25.0728C24.4196 25.0415 24.4669 24.9997 24.5047 24.9498C24.5425 24.8999 24.5699 24.8429 24.5853 24.7822C24.6007 24.7215 24.6037 24.6584 24.5943 24.5965C24.5849 24.5346 24.5632 24.4752 24.5305 24.4219ZM15.2188 17.625C15.2188 16.976 15.4112 16.3416 15.7718 15.802C16.1323 15.2624 16.6448 14.8419 17.2443 14.5935C17.8439 14.3452 18.5037 14.2802 19.1402 14.4068C19.7767 14.5334 20.3613 14.8459 20.8202 15.3048C21.2791 15.7637 21.5916 16.3484 21.7182 16.9849C21.8448 17.6214 21.7799 18.2811 21.5315 18.8807C21.2832 19.4803 20.8626 19.9927 20.323 20.3533C19.7834 20.7138 19.149 20.9063 18.5 20.9063C17.6301 20.9053 16.796 20.5593 16.1809 19.9442C15.5657 19.329 15.2197 18.495 15.2188 17.625Z" fill="black"/>
</svg>
